# xmcd
#
# Track frame offsets:
#	150
#	10185
#	24820
#	40685
#	63128
#	72706
#	89841
#	103454
#	120126
#	139771
#	154785
#	165566
#	178291
#	189323
#	201736
#	218186
#	235389
#	254471
#	263922
#
# Disc length: 3727 seconds
#
# Revision: 2
# Processed by: cddbd v1.5.2PL0 Copyright (c) Steve Scherf et al.
# Submitted via: audiograbber 1.83.01
#
DISCID=160e8d13
DTITLE=Screamin' Jay Hawkins - Portrait of a MANIAC
DYEAR=1998
DGENRE=Blues
TTITLE0=I Put A Spell On You
TTITLE1=Africa Gone Funky
TTITLE2=I Don't Know
TTITLE3=What's Going To Happen On The 8th Day
TTITLE4=What Good Is It If You Don't Use It
TTITLE5=Please Don't Leave Me
TTITLE6=Move Me
TTITLE7=Don't Deceive Me
TTITLE8=Guess Who
TTITLE9=It's Only Make Believe
TTITLE10=Time After Time
TTITLE11=We Love
TTITLE12=Itty Bitty Pretty One
TTITLE13=Ashes
TTITLE14=Ebb Tide
TTITLE15=I've Got You Under My Skin
TTITLE16=Portrait Of A Man
TTITLE17=I Need You
TTITLE18=I Put A Spell On You (2nd Version)
EXTD=
EXTT0=
EXTT1=
EXTT2=
EXTT3=
EXTT4=
EXTT5=
EXTT6=
EXTT7=
EXTT8=
EXTT9=
EXTT10=
EXTT11=
EXTT12=
EXTT13=
EXTT14=
EXTT15=
EXTT16=
EXTT17=
EXTT18=
PLAYORDER=
